<?xml version="1.0" encoding="utf-8" standalone="no"?>
<!DOCTYPE svg PUBLIC "-//W3C//DTD SVG 1.1//EN"
  "http://www.w3.org/Graphics/SVG/1.1/DTD/svg11.dtd">
<svg xmlns:xlink="http://www.w3.org/1999/xlink" width="475pt" height="285pt" viewBox="0 0 475 285" xmlns="http://www.w3.org/2000/svg" version="1.1">
 <metadata>
  <rdf:RDF xmlns:dc="http://purl.org/dc/elements/1.1/" xmlns:cc="http://creativecommons.org/ns#" xmlns:rdf="http://www.w3.org/1999/02/22-rdf-syntax-ns#">
   <cc:Work>
    <dc:type rdf:resource="http://purl.org/dc/dcmitype/StillImage"/>
    <dc:date>2026-08-10T22:48:09.319309</dc:date>
    <dc:format>image/svg+xml</dc:format>
    <dc:creator>
     <cc:Agent>
      <dc:title>Matplotlib v3.10.9, https://matplotlib.org/</dc:title>
     </cc:Agent>
    </dc:creator>
   </cc:Work>
  </rdf:RDF>
 </metadata>
 <defs>
  <style type="text/css">*{stroke-linejoin: round; stroke-linecap: butt}</style>
 </defs>
 <g id="figure_1">
  <g id="patch_1">
   <path d="M 0 285 
L 475 285 
L 475 0 
L 0 0 
L 0 285 
z
" style="fill: none"/>
  </g>
  <g id="axes_1">
   <g id="patch_2">
    <path d="M 95 209.475 
L 472.625 209.475 
L 472.625 14.25 
L 95 14.25 
L 95 209.475 
z
" style="fill: none"/>
   </g>
   <g id="matplotlib.axis_1"/>
   <g id="matplotlib.axis_2">
    <g id="ytick_1">
     <g id="line2d_1">
      <defs>
       <path id="m0f72c25bb6" d="M 0 0 
L -5 0 
" style="stroke: #000000; stroke-width: 0.75"/>
      </defs>
      <g>
       <use xlink:href="#m0f72c25bb6" x="95" y="209.475" style="stroke: #000000; stroke-width: 0.75"/>
      </g>
     </g>
     <g id="text_1">
      <text style="font-size: 14.5px; font-family: 'Atkinson Hyperlegible Mono'; text-anchor: end" x="85" y="214.607773" transform="rotate(-0 85 214.607773)">0.5</text>
     </g>
    </g>
    <g id="ytick_2">
     <g id="line2d_2">
      <g>
       <use xlink:href="#m0f72c25bb6" x="95" y="179.440385" style="stroke: #000000; stroke-width: 0.75"/>
      </g>
     </g>
     <g id="text_2">
      <text style="font-size: 14.5px; font-family: 'Atkinson Hyperlegible Mono'; text-anchor: end" x="85" y="184.573158" transform="rotate(-0 85 184.573158)">0.6</text>
     </g>
    </g>
    <g id="ytick_3">
     <g id="line2d_3">
      <g>
       <use xlink:href="#m0f72c25bb6" x="95" y="149.405769" style="stroke: #000000; stroke-width: 0.75"/>
      </g>
     </g>
     <g id="text_3">
      <text style="font-size: 14.5px; font-family: 'Atkinson Hyperlegible Mono'; text-anchor: end" x="85" y="154.538543" transform="rotate(-0 85 154.538543)">0.7</text>
     </g>
    </g>
    <g id="ytick_4">
     <g id="line2d_4">
      <g>
       <use xlink:href="#m0f72c25bb6" x="95" y="119.371154" style="stroke: #000000; stroke-width: 0.75"/>
      </g>
     </g>
     <g id="text_4">
      <text style="font-size: 14.5px; font-family: 'Atkinson Hyperlegible Mono'; text-anchor: end" x="85" y="124.503927" transform="rotate(-0 85 124.503927)">0.8</text>
     </g>
    </g>
    <g id="ytick_5">
     <g id="line2d_5">
      <g>
       <use xlink:href="#m0f72c25bb6" x="95" y="89.336538" style="stroke: #000000; stroke-width: 0.75"/>
      </g>
     </g>
     <g id="text_5">
      <text style="font-size: 14.5px; font-family: 'Atkinson Hyperlegible Mono'; text-anchor: end" x="85" y="94.469312" transform="rotate(-0 85 94.469312)">0.9</text>
     </g>
    </g>
    <g id="ytick_6">
     <g id="line2d_6">
      <g>
       <use xlink:href="#m0f72c25bb6" x="95" y="59.301923" style="stroke: #000000; stroke-width: 0.75"/>
      </g>
     </g>
     <g id="text_6">
      <text style="font-size: 14.5px; font-family: 'Atkinson Hyperlegible Mono'; text-anchor: end" x="85" y="64.434697" transform="rotate(-0 85 64.434697)">1.0</text>
     </g>
    </g>
    <g id="text_7">
     <text style="font-weight: 500; font-size: 15px; font-family: 'Atkinson Hyperlegible Next', 'Noto Sans', 'DejaVu Sans'; text-anchor: middle" x="45.076172" y="111.8625" transform="rotate(-90 45.076172 111.8625)">Validation AUROC</text>
    </g>
   </g>
   <g id="line2d_7">
    <path d="M 381.045284 209.475 
L 381.045284 14.25 
" clip-path="url(#paa44c322dd)" style="fill: none; stroke-dasharray: 1.5,1.5; stroke-dashoffset: 0; stroke: #dbd1c3; stroke-width: 0.75"/>
   </g>
   <g id="patch_3">
    <path d="M 95 209.475 
L 95 14.25 
" style="fill: none; stroke: #000000; stroke-width: 0.75; stroke-linejoin: miter; stroke-linecap: square"/>
   </g>
   <g id="patch_4">
    <path d="M 95 209.475 
L 472.625 209.475 
" style="fill: none; stroke: #000000; stroke-width: 0.75; stroke-linejoin: miter; stroke-linecap: square"/>
   </g>
   <g id="patch_5">
    <path d="M 99.409394 209.475 
L 108.680427 209.475 
L 108.680427 71.037358 
L 99.409394 71.037358 
z
" clip-path="url(#paa44c322dd)" style="fill: #b9afa7"/>
   </g>
   <g id="patch_6">
    <path d="M 110.715531 209.475 
L 119.986564 209.475 
L 119.986564 71.272803 
L 110.715531 71.272803 
z
" clip-path="url(#paa44c322dd)" style="fill: #b9afa7"/>
   </g>
   <g id="patch_7">
    <path d="M 122.021669 209.475 
L 131.292702 209.475 
L 131.292702 71.459599 
L 122.021669 71.459599 
z
" clip-path="url(#paa44c322dd)" style="fill: #71ac5a"/>
   </g>
   <g id="patch_8">
    <path d="M 133.327807 209.475 
L 142.59884 209.475 
L 142.59884 73.371067 
L 133.327807 73.371067 
z
" clip-path="url(#paa44c322dd)" style="fill: #b9afa7"/>
   </g>
   <g id="patch_9">
    <path d="M 144.633945 209.475 
L 153.904978 209.475 
L 153.904978 74.656034 
L 144.633945 74.656034 
z
" clip-path="url(#paa44c322dd)" style="fill: #b9afa7"/>
   </g>
   <g id="patch_10">
    <path d="M 155.940082 209.475 
L 165.211115 209.475 
L 165.211115 74.77282 
L 155.940082 74.77282 
z
" clip-path="url(#paa44c322dd)" style="fill: #b9afa7"/>
   </g>
   <g id="patch_11">
    <path d="M 167.24622 209.475 
L 176.517253 209.475 
L 176.517253 74.907071 
L 167.24622 74.907071 
z
" clip-path="url(#paa44c322dd)" style="fill: #b9afa7"/>
   </g>
   <g id="patch_12">
    <path d="M 178.552358 209.475 
L 187.823391 209.475 
L 187.823391 75.117178 
L 178.552358 75.117178 
z
" clip-path="url(#paa44c322dd)" style="fill: #b9afa7"/>
   </g>
   <g id="patch_13">
    <path d="M 189.858496 209.475 
L 199.129528 209.475 
L 199.129528 76.678363 
L 189.858496 76.678363 
z
" clip-path="url(#paa44c322dd)" style="fill: #b9afa7"/>
   </g>
   <g id="patch_14">
    <path d="M 201.164633 209.475 
L 210.435666 209.475 
L 210.435666 77.141612 
L 201.164633 77.141612 
z
" clip-path="url(#paa44c322dd)" style="fill: #b9afa7"/>
   </g>
   <g id="patch_15">
    <path d="M 212.470771 209.475 
L 221.741804 209.475 
L 221.741804 77.485268 
L 212.470771 77.485268 
z
" clip-path="url(#paa44c322dd)" style="fill: #b9afa7"/>
   </g>
   <g id="patch_16">
    <path d="M 223.776909 209.475 
L 233.047942 209.475 
L 233.047942 78.294667 
L 223.776909 78.294667 
z
" clip-path="url(#paa44c322dd)" style="fill: #b9afa7"/>
   </g>
   <g id="patch_17">
    <path d="M 235.083046 209.475 
L 244.354079 209.475 
L 244.354079 78.574862 
L 235.083046 78.574862 
z
" clip-path="url(#paa44c322dd)" style="fill: #b9afa7"/>
   </g>
   <g id="patch_18">
    <path d="M 246.389184 209.475 
L 255.660217 209.475 
L 255.660217 81.136843 
L 246.389184 81.136843 
z
" clip-path="url(#paa44c322dd)" style="fill: #b9afa7"/>
   </g>
   <g id="patch_19">
    <path d="M 257.695322 209.475 
L 266.966355 209.475 
L 266.966355 83.57502 
L 257.695322 83.57502 
z
" clip-path="url(#paa44c322dd)" style="fill: #b9afa7"/>
   </g>
   <g id="patch_20">
    <path d="M 269.00146 209.475 
L 278.272493 209.475 
L 278.272493 83.974341 
L 269.00146 83.974341 
z
" clip-path="url(#paa44c322dd)" style="fill: #b9afa7"/>
   </g>
   <g id="patch_21">
    <path d="M 280.307597 209.475 
L 289.57863 209.475 
L 289.57863 91.377282 
L 280.307597 91.377282 
z
" clip-path="url(#paa44c322dd)" style="fill: #b9afa7"/>
   </g>
   <g id="patch_22">
    <path d="M 291.613735 209.475 
L 300.884768 209.475 
L 300.884768 102.043237 
L 291.613735 102.043237 
z
" clip-path="url(#paa44c322dd)" style="fill: #b9afa7"/>
   </g>
   <g id="patch_23">
    <path d="M 302.919873 209.475 
L 312.190906 209.475 
L 312.190906 127.355722 
L 302.919873 127.355722 
z
" clip-path="url(#paa44c322dd)" style="fill: #b9afa7"/>
   </g>
   <g id="patch_24">
    <path d="M 314.22601 209.475 
L 323.497043 209.475 
L 323.497043 135.029814 
L 314.22601 135.029814 
z
" clip-path="url(#paa44c322dd)" style="fill: #b9afa7"/>
   </g>
   <g id="patch_25">
    <path d="M 325.532148 209.475 
L 334.803181 209.475 
L 334.803181 139.123277 
L 325.532148 139.123277 
z
" clip-path="url(#paa44c322dd)" style="fill: #b9afa7"/>
   </g>
   <g id="patch_26">
    <path d="M 336.838286 209.475 
L 346.109319 209.475 
L 346.109319 152.047084 
L 336.838286 152.047084 
z
" clip-path="url(#paa44c322dd)" style="fill: #b9afa7"/>
   </g>
   <g id="patch_27">
    <path d="M 348.144424 209.475 
L 357.415457 209.475 
L 357.415457 205.709133 
L 348.144424 205.709133 
z
" clip-path="url(#paa44c322dd)" style="fill: #b9afa7"/>
   </g>
   <g id="patch_28">
    <path d="M 359.450561 209.475 
L 368.721594 209.475 
L 368.721594 209.475 
L 359.450561 209.475 
z
" clip-path="url(#paa44c322dd)" style="fill: #b9afa7"/>
   </g>
   <g id="patch_29">
    <path d="M 393.368975 209.475 
L 402.640007 209.475 
L 402.640007 166.100012 
L 393.368975 166.100012 
z
" clip-path="url(#paa44c322dd)" style="fill: #dbd1c3"/>
   </g>
   <g id="patch_30">
    <path d="M 404.675112 209.475 
L 413.946145 209.475 
L 413.946145 144.565089 
L 404.675112 144.565089 
z
" clip-path="url(#paa44c322dd)" style="fill: #dbd1c3"/>
   </g>
   <g id="patch_31">
    <path d="M 415.98125 209.475 
L 425.252283 209.475 
L 425.252283 137.112096 
L 415.98125 137.112096 
z
" clip-path="url(#paa44c322dd)" style="fill: #dbd1c3"/>
   </g>
   <g id="patch_32">
    <path d="M 427.287388 209.475 
L 436.558421 209.475 
L 436.558421 130.472869 
L 427.287388 130.472869 
z
" clip-path="url(#paa44c322dd)" style="fill: #dbd1c3"/>
   </g>
   <g id="patch_33">
    <path d="M 438.593525 209.475 
L 447.864558 209.475 
L 447.864558 127.218119 
L 438.593525 127.218119 
z
" clip-path="url(#paa44c322dd)" style="fill: #dbd1c3"/>
   </g>
   <g id="patch_34">
    <path d="M 449.899663 209.475 
L 459.170696 209.475 
L 459.170696 128.687777 
L 449.899663 128.687777 
z
" clip-path="url(#paa44c322dd)" style="fill: #dbd1c3"/>
   </g>
   <g id="text_8">
    <text style="font-weight: 100; font-size: 13px; font-family: 'Atkinson Hyperlegible Next', 'Noto Sans', 'DejaVu Sans'; text-anchor: start; fill: #484b50" x="135.702096" y="29.056357" transform="rotate(-0 135.702096 29.056357)">2-layer CNN, max pooling</text>
   </g>
   <g id="text_9">
    <text style="font-weight: 600; font-size: 13px; font-family: 'Atkinson Hyperlegible Mono'; text-anchor: start; fill: #47784a" x="135.702096" y="44.229055" transform="rotate(-0 135.702096 44.229055)">validation AUROC = 0.960</text>
   </g>
   <g id="text_10">
    <text style="font-weight: 500; font-size: 13px; font-family: 'Atkinson Hyperlegible Next', 'Noto Sans', 'DejaVu Sans'" transform="translate(148.946978 238.461094)">Classifier architecture sweep</text>
    <text style="font-weight: 500; font-size: 13px; font-family: 'Atkinson Hyperlegible Next', 'Noto Sans', 'DejaVu Sans'" transform="translate(210.86151 251.628875)">(n = 24)</text>
   </g>
   <g id="text_11">
    <text style="font-weight: 500; font-size: 13px; font-family: 'Atkinson Hyperlegible Next', 'Noto Sans', 'DejaVu Sans'; text-anchor: middle" x="426.269835" y="238.201094" transform="rotate(-0 426.269835 238.201094)">Null baselines</text>
   </g>
  </g>
 </g>
 <defs>
  <clipPath id="paa44c322dd">
   <rect x="95" y="14.25" width="377.625" height="195.225"/>
  </clipPath>
 </defs>
</svg>
