<?xml version="1.0" encoding="utf-8" standalone="no"?>
<!DOCTYPE svg PUBLIC "-//W3C//DTD SVG 1.1//EN"
  "http://www.w3.org/Graphics/SVG/1.1/DTD/svg11.dtd">
<svg xmlns:xlink="http://www.w3.org/1999/xlink" width="666.666667pt" height="333.333333pt" viewBox="0 0 666.666667 333.333333" xmlns="http://www.w3.org/2000/svg" version="1.1">
 <metadata>
  <rdf:RDF xmlns:dc="http://purl.org/dc/elements/1.1/" xmlns:cc="http://creativecommons.org/ns#" xmlns:rdf="http://www.w3.org/1999/02/22-rdf-syntax-ns#">
   <cc:Work>
    <dc:type rdf:resource="http://purl.org/dc/dcmitype/StillImage"/>
    <dc:date>2026-08-05T23:31:55.661081</dc:date>
    <dc:format>image/svg+xml</dc:format>
    <dc:creator>
     <cc:Agent>
      <dc:title>Matplotlib v3.10.9, https://matplotlib.org/</dc:title>
     </cc:Agent>
    </dc:creator>
   </cc:Work>
  </rdf:RDF>
 </metadata>
 <defs>
  <style type="text/css">*{stroke-linejoin: round; stroke-linecap: butt}</style>
 </defs>
 <g id="figure_1">
  <g id="patch_1">
   <path d="M 0 333.333333 
L 666.666667 333.333333 
L 666.666667 0 
L 0 0 
L 0 333.333333 
z
" style="fill: none"/>
  </g>
  <g id="axes_1">
   <g id="patch_2">
    <path d="M 93.333333 250 
L 573.333333 250 
L 573.333333 33.333333 
L 93.333333 33.333333 
L 93.333333 250 
z
" style="fill: none"/>
   </g>
   <g id="matplotlib.axis_1"/>
   <g id="matplotlib.axis_2">
    <g id="ytick_1">
     <g id="line2d_1">
      <defs>
       <path id="m9621bc26d9" d="M 0 0 
L -5 0 
" style="stroke: #000000; stroke-width: 0.75"/>
      </defs>
      <g>
       <use xlink:href="#m9621bc26d9" x="93.333333" y="250" style="stroke: #000000; stroke-width: 0.75"/>
      </g>
     </g>
     <g id="text_1">
      <text style="font-size: 14.5px; font-family: 'Atkinson Hyperlegible Mono'; text-anchor: end" x="83.333333" y="255.132773" transform="rotate(-0 83.333333 255.132773)">0</text>
     </g>
    </g>
    <g id="ytick_2">
     <g id="line2d_2">
      <g>
       <use xlink:href="#m9621bc26d9" x="93.333333" y="208.486616" style="stroke: #000000; stroke-width: 0.75"/>
      </g>
     </g>
     <g id="text_2">
      <text style="font-size: 14.5px; font-family: 'Atkinson Hyperlegible Mono'; text-anchor: end" x="83.333333" y="213.619389" transform="rotate(-0 83.333333 213.619389)">5</text>
     </g>
    </g>
    <g id="ytick_3">
     <g id="line2d_3">
      <g>
       <use xlink:href="#m9621bc26d9" x="93.333333" y="166.973231" style="stroke: #000000; stroke-width: 0.75"/>
      </g>
     </g>
     <g id="text_3">
      <text style="font-size: 14.5px; font-family: 'Atkinson Hyperlegible Mono'; text-anchor: end" x="83.333333" y="172.106005" transform="rotate(-0 83.333333 172.106005)">10</text>
     </g>
    </g>
    <g id="ytick_4">
     <g id="line2d_4">
      <g>
       <use xlink:href="#m9621bc26d9" x="93.333333" y="125.459847" style="stroke: #000000; stroke-width: 0.75"/>
      </g>
     </g>
     <g id="text_4">
      <text style="font-size: 14.5px; font-family: 'Atkinson Hyperlegible Mono'; text-anchor: end" x="83.333333" y="130.59262" transform="rotate(-0 83.333333 130.59262)">15</text>
     </g>
    </g>
    <g id="ytick_5">
     <g id="line2d_5">
      <g>
       <use xlink:href="#m9621bc26d9" x="93.333333" y="83.946462" style="stroke: #000000; stroke-width: 0.75"/>
      </g>
     </g>
     <g id="text_5">
      <text style="font-size: 14.5px; font-family: 'Atkinson Hyperlegible Mono'; text-anchor: end" x="83.333333" y="89.079236" transform="rotate(-0 83.333333 89.079236)">20</text>
     </g>
    </g>
    <g id="ytick_6">
     <g id="line2d_6">
      <g>
       <use xlink:href="#m9621bc26d9" x="93.333333" y="42.433078" style="stroke: #000000; stroke-width: 0.75"/>
      </g>
     </g>
     <g id="text_6">
      <text style="font-size: 14.5px; font-family: 'Atkinson Hyperlegible Mono'; text-anchor: end" x="83.333333" y="47.565851" transform="rotate(-0 83.333333 47.565851)">25</text>
     </g>
    </g>
    <g id="text_7">
     <text style="font-weight: 500; font-size: 15px; font-family: 'Atkinson Hyperlegible Next', 'Noto Sans', 'DejaVu Sans'; text-anchor: middle" x="52.573958" y="141.666667" transform="rotate(-90 52.573958 141.666667)">Validation MAE (nm)</text>
    </g>
   </g>
   <g id="line2d_7">
    <path d="M 513.653049 250 
L 513.653049 33.333333 
" clip-path="url(#p430072717a)" style="fill: none; stroke-dasharray: 1.5,1.5; stroke-dashoffset: 0; stroke: #dbd1c3; stroke-width: 0.75"/>
   </g>
   <g id="patch_3">
    <path d="M 93.333333 250 
L 93.333333 33.333333 
" style="fill: none; stroke: #000000; stroke-width: 0.75; stroke-linejoin: miter; stroke-linecap: square"/>
   </g>
   <g id="patch_4">
    <path d="M 93.333333 250 
L 573.333333 250 
" style="fill: none; stroke: #000000; stroke-width: 0.75; stroke-linejoin: miter; stroke-linecap: square"/>
   </g>
   <g id="patch_5">
    <path d="M 96.658378 250 
L 103.649497 250 
L 103.649497 177.68351 
L 96.658378 177.68351 
z
" clip-path="url(#p430072717a)" style="fill: #f28360"/>
   </g>
   <g id="patch_6">
    <path d="M 105.184133 250 
L 112.175252 250 
L 112.175252 176.084404 
L 105.184133 176.084404 
z
" clip-path="url(#p430072717a)" style="fill: #b9afa7"/>
   </g>
   <g id="patch_7">
    <path d="M 113.709888 250 
L 120.701007 250 
L 120.701007 174.842672 
L 113.709888 174.842672 
z
" clip-path="url(#p430072717a)" style="fill: #b9afa7"/>
   </g>
   <g id="patch_8">
    <path d="M 122.235642 250 
L 129.226761 250 
L 129.226761 173.082608 
L 122.235642 173.082608 
z
" clip-path="url(#p430072717a)" style="fill: #b9afa7"/>
   </g>
   <g id="patch_9">
    <path d="M 130.761397 250 
L 137.752516 250 
L 137.752516 172.712701 
L 130.761397 172.712701 
z
" clip-path="url(#p430072717a)" style="fill: #b9afa7"/>
   </g>
   <g id="patch_10">
    <path d="M 139.287152 250 
L 146.278271 250 
L 146.278271 172.054909 
L 139.287152 172.054909 
z
" clip-path="url(#p430072717a)" style="fill: #b9afa7"/>
   </g>
   <g id="patch_11">
    <path d="M 147.812907 250 
L 154.804026 250 
L 154.804026 171.908575 
L 147.812907 171.908575 
z
" clip-path="url(#p430072717a)" style="fill: #b9afa7"/>
   </g>
   <g id="patch_12">
    <path d="M 156.338662 250 
L 163.329781 250 
L 163.329781 171.652094 
L 156.338662 171.652094 
z
" clip-path="url(#p430072717a)" style="fill: #b9afa7"/>
   </g>
   <g id="patch_13">
    <path d="M 164.864417 250 
L 171.855536 250 
L 171.855536 171.387655 
L 164.864417 171.387655 
z
" clip-path="url(#p430072717a)" style="fill: #b9afa7"/>
   </g>
   <g id="patch_14">
    <path d="M 173.390172 250 
L 180.381291 250 
L 180.381291 171.359949 
L 173.390172 171.359949 
z
" clip-path="url(#p430072717a)" style="fill: #b9afa7"/>
   </g>
   <g id="patch_15">
    <path d="M 181.915927 250 
L 188.907046 250 
L 188.907046 171.217733 
L 181.915927 171.217733 
z
" clip-path="url(#p430072717a)" style="fill: #b9afa7"/>
   </g>
   <g id="patch_16">
    <path d="M 190.441681 250 
L 197.4328 250 
L 197.4328 169.247438 
L 190.441681 169.247438 
z
" clip-path="url(#p430072717a)" style="fill: #b9afa7"/>
   </g>
   <g id="patch_17">
    <path d="M 198.967436 250 
L 205.958555 250 
L 205.958555 169.239955 
L 198.967436 169.239955 
z
" clip-path="url(#p430072717a)" style="fill: #b9afa7"/>
   </g>
   <g id="patch_18">
    <path d="M 207.493191 250 
L 214.48431 250 
L 214.48431 164.648856 
L 207.493191 164.648856 
z
" clip-path="url(#p430072717a)" style="fill: #b9afa7"/>
   </g>
   <g id="patch_19">
    <path d="M 216.018946 250 
L 223.010065 250 
L 223.010065 162.992645 
L 216.018946 162.992645 
z
" clip-path="url(#p430072717a)" style="fill: #b9afa7"/>
   </g>
   <g id="patch_20">
    <path d="M 224.544701 250 
L 231.53582 250 
L 231.53582 161.669919 
L 224.544701 161.669919 
z
" clip-path="url(#p430072717a)" style="fill: #b9afa7"/>
   </g>
   <g id="patch_21">
    <path d="M 233.070456 250 
L 240.061575 250 
L 240.061575 161.631929 
L 233.070456 161.631929 
z
" clip-path="url(#p430072717a)" style="fill: #b9afa7"/>
   </g>
   <g id="patch_22">
    <path d="M 241.596211 250 
L 248.58733 250 
L 248.58733 160.309931 
L 241.596211 160.309931 
z
" clip-path="url(#p430072717a)" style="fill: #b9afa7"/>
   </g>
   <g id="patch_23">
    <path d="M 250.121966 250 
L 257.113085 250 
L 257.113085 158.998409 
L 250.121966 158.998409 
z
" clip-path="url(#p430072717a)" style="fill: #b9afa7"/>
   </g>
   <g id="patch_24">
    <path d="M 258.647721 250 
L 265.63884 250 
L 265.63884 158.859028 
L 258.647721 158.859028 
z
" clip-path="url(#p430072717a)" style="fill: #b9afa7"/>
   </g>
   <g id="patch_25">
    <path d="M 267.173475 250 
L 274.164594 250 
L 274.164594 157.77838 
L 267.173475 157.77838 
z
" clip-path="url(#p430072717a)" style="fill: #b9afa7"/>
   </g>
   <g id="patch_26">
    <path d="M 275.69923 250 
L 282.690349 250 
L 282.690349 157.426819 
L 275.69923 157.426819 
z
" clip-path="url(#p430072717a)" style="fill: #b9afa7"/>
   </g>
   <g id="patch_27">
    <path d="M 284.224985 250 
L 291.216104 250 
L 291.216104 156.066442 
L 284.224985 156.066442 
z
" clip-path="url(#p430072717a)" style="fill: #b9afa7"/>
   </g>
   <g id="patch_28">
    <path d="M 292.75074 250 
L 299.741859 250 
L 299.741859 155.941448 
L 292.75074 155.941448 
z
" clip-path="url(#p430072717a)" style="fill: #b9afa7"/>
   </g>
   <g id="patch_29">
    <path d="M 301.276495 250 
L 308.267614 250 
L 308.267614 155.450315 
L 301.276495 155.450315 
z
" clip-path="url(#p430072717a)" style="fill: #b9afa7"/>
   </g>
   <g id="patch_30">
    <path d="M 309.80225 250 
L 316.793369 250 
L 316.793369 155.246259 
L 309.80225 155.246259 
z
" clip-path="url(#p430072717a)" style="fill: #b9afa7"/>
   </g>
   <g id="patch_31">
    <path d="M 318.328005 250 
L 325.319124 250 
L 325.319124 154.793687 
L 318.328005 154.793687 
z
" clip-path="url(#p430072717a)" style="fill: #b9afa7"/>
   </g>
   <g id="patch_32">
    <path d="M 326.85376 250 
L 333.844879 250 
L 333.844879 153.306733 
L 326.85376 153.306733 
z
" clip-path="url(#p430072717a)" style="fill: #b9afa7"/>
   </g>
   <g id="patch_33">
    <path d="M 335.379515 250 
L 342.370634 250 
L 342.370634 153.03337 
L 335.379515 153.03337 
z
" clip-path="url(#p430072717a)" style="fill: #b9afa7"/>
   </g>
   <g id="patch_34">
    <path d="M 343.905269 250 
L 350.896388 250 
L 350.896388 152.472455 
L 343.905269 152.472455 
z
" clip-path="url(#p430072717a)" style="fill: #b9afa7"/>
   </g>
   <g id="patch_35">
    <path d="M 352.431024 250 
L 359.422143 250 
L 359.422143 151.784092 
L 352.431024 151.784092 
z
" clip-path="url(#p430072717a)" style="fill: #b9afa7"/>
   </g>
   <g id="patch_36">
    <path d="M 360.956779 250 
L 367.947898 250 
L 367.947898 146.962055 
L 360.956779 146.962055 
z
" clip-path="url(#p430072717a)" style="fill: #b9afa7"/>
   </g>
   <g id="patch_37">
    <path d="M 369.482534 250 
L 376.473653 250 
L 376.473653 146.702493 
L 369.482534 146.702493 
z
" clip-path="url(#p430072717a)" style="fill: #b9afa7"/>
   </g>
   <g id="patch_38">
    <path d="M 378.008289 250 
L 384.999408 250 
L 384.999408 146.259589 
L 378.008289 146.259589 
z
" clip-path="url(#p430072717a)" style="fill: #b9afa7"/>
   </g>
   <g id="patch_39">
    <path d="M 386.534044 250 
L 393.525163 250 
L 393.525163 146.241687 
L 386.534044 146.241687 
z
" clip-path="url(#p430072717a)" style="fill: #b9afa7"/>
   </g>
   <g id="patch_40">
    <path d="M 395.059799 250 
L 402.050918 250 
L 402.050918 144.169976 
L 395.059799 144.169976 
z
" clip-path="url(#p430072717a)" style="fill: #b9afa7"/>
   </g>
   <g id="patch_41">
    <path d="M 403.585554 250 
L 410.576673 250 
L 410.576673 143.664694 
L 403.585554 143.664694 
z
" clip-path="url(#p430072717a)" style="fill: #b9afa7"/>
   </g>
   <g id="patch_42">
    <path d="M 412.111308 250 
L 419.102427 250 
L 419.102427 138.318411 
L 412.111308 138.318411 
z
" clip-path="url(#p430072717a)" style="fill: #b9afa7"/>
   </g>
   <g id="patch_43">
    <path d="M 420.637063 250 
L 427.628182 250 
L 427.628182 137.74687 
L 420.637063 137.74687 
z
" clip-path="url(#p430072717a)" style="fill: #b9afa7"/>
   </g>
   <g id="patch_44">
    <path d="M 429.162818 250 
L 436.153937 250 
L 436.153937 135.32968 
L 429.162818 135.32968 
z
" clip-path="url(#p430072717a)" style="fill: #b9afa7"/>
   </g>
   <g id="patch_45">
    <path d="M 437.688573 250 
L 444.679692 250 
L 444.679692 125.199644 
L 437.688573 125.199644 
z
" clip-path="url(#p430072717a)" style="fill: #b9afa7"/>
   </g>
   <g id="patch_46">
    <path d="M 446.214328 250 
L 453.205447 250 
L 453.205447 124.912741 
L 446.214328 124.912741 
z
" clip-path="url(#p430072717a)" style="fill: #b9afa7"/>
   </g>
   <g id="patch_47">
    <path d="M 454.740083 250 
L 461.731202 250 
L 461.731202 102.401678 
L 454.740083 102.401678 
z
" clip-path="url(#p430072717a)" style="fill: #b9afa7"/>
   </g>
   <g id="patch_48">
    <path d="M 463.265838 250 
L 470.256957 250 
L 470.256957 98.66751 
L 463.265838 98.66751 
z
" clip-path="url(#p430072717a)" style="fill: #b9afa7"/>
   </g>
   <g id="patch_49">
    <path d="M 471.791593 250 
L 478.782712 250 
L 478.782712 93.522868 
L 471.791593 93.522868 
z
" clip-path="url(#p430072717a)" style="fill: #b9afa7"/>
   </g>
   <g id="patch_50">
    <path d="M 480.317348 250 
L 487.308467 250 
L 487.308467 93.053629 
L 480.317348 93.053629 
z
" clip-path="url(#p430072717a)" style="fill: #b9afa7"/>
   </g>
   <g id="patch_51">
    <path d="M 488.843102 250 
L 495.834221 250 
L 495.834221 83.817762 
L 488.843102 83.817762 
z
" clip-path="url(#p430072717a)" style="fill: #b9afa7"/>
   </g>
   <g id="patch_52">
    <path d="M 497.368857 250 
L 504.359976 250 
L 504.359976 -60.123814 
L 497.368857 -60.123814 
z
" clip-path="url(#p430072717a)" style="fill: #b9afa7"/>
   </g>
   <g id="patch_53">
    <path d="M 522.946122 250 
L 529.937241 250 
L 529.937241 111.312525 
L 522.946122 111.312525 
z
" clip-path="url(#p430072717a)" style="fill: #dbd1c3"/>
   </g>
   <g id="patch_54">
    <path d="M 531.471877 250 
L 538.462996 250 
L 538.462996 92.886431 
L 531.471877 92.886431 
z
" clip-path="url(#p430072717a)" style="fill: #dbd1c3"/>
   </g>
   <g id="patch_55">
    <path d="M 539.997632 250 
L 546.988751 250 
L 546.988751 100.245942 
L 539.997632 100.245942 
z
" clip-path="url(#p430072717a)" style="fill: #dbd1c3"/>
   </g>
   <g id="patch_56">
    <path d="M 548.523387 250 
L 555.514506 250 
L 555.514506 69.045358 
L 548.523387 69.045358 
z
" clip-path="url(#p430072717a)" style="fill: #dbd1c3"/>
   </g>
   <g id="patch_57">
    <path d="M 557.049142 250 
L 564.040261 250 
L 564.040261 56.547619 
L 557.049142 56.547619 
z
" clip-path="url(#p430072717a)" style="fill: #dbd1c3"/>
   </g>
   <g id="text_8">
    <text style="font-weight: 100; font-size: 15px; font-family: 'Atkinson Hyperlegible Next', 'Noto Sans', 'DejaVu Sans'; fill: #484b50" transform="translate(100.153937 113.720541)">1-layer CNN</text>
    <text style="font-weight: 100; font-size: 15px; font-family: 'Atkinson Hyperlegible Next', 'Noto Sans', 'DejaVu Sans'; fill: #484b50" transform="translate(100.153937 128.894447)">max pooling</text>
   </g>
   <g id="text_9">
    <text style="font-weight: 600; font-size: 19px; font-family: 'Atkinson Hyperlegible Mono'; text-anchor: start; fill: #f28360" x="100.153937" y="150.604916" transform="rotate(-0 100.153937 150.604916)">8.7 nm</text>
   </g>
   <g id="patch_58">
    <path d="M 100.153937 158.019 
Q 100.153937 166.850266 100.153937 175.681532 
" style="fill: none; stroke: #f28360; stroke-linecap: round"/>
   </g>
   <g id="text_10">
    <text style="font-weight: 500; font-size: 15px; font-family: 'Atkinson Hyperlegible Next', 'Noto Sans', 'DejaVu Sans'" transform="translate(211.870896 286.919531)">Oracle architecture sweep</text>
    <text style="font-weight: 500; font-size: 15px; font-family: 'Atkinson Hyperlegible Next', 'Noto Sans', 'DejaVu Sans'" transform="translate(273.29238 302.113125)">(n = 48)</text>
   </g>
   <g id="text_11">
    <text style="font-weight: 500; font-size: 15px; font-family: 'Atkinson Hyperlegible Next', 'Noto Sans', 'DejaVu Sans'" transform="translate(487.373269 286.619531)">NN null baseline</text>
    <text style="font-weight: 500; font-size: 15px; font-family: 'Atkinson Hyperlegible Next', 'Noto Sans', 'DejaVu Sans'" transform="translate(469.674441 301.973437)">(same folds, k = 1-20)</text>
   </g>
  </g>
 </g>
 <defs>
  <clipPath id="p430072717a">
   <rect x="93.333333" y="33.333333" width="480" height="216.666667"/>
  </clipPath>
 </defs>
</svg>
